<?xml version="1.0" standalone="no"?>
<!DOCTYPE svg PUBLIC "-//W3C//DTD SVG 20010904//EN"
 "http://www.w3.org/TR/2001/REC-SVG-20010904/DTD/svg10.dtd">
<svg version="1.0" xmlns="http://www.w3.org/2000/svg"
 width="140.000000pt" height="140.000000pt" viewBox="0 0 140.000000 140.000000"
 preserveAspectRatio="xMidYMid meet">
<metadata>
Created by potrace 1.11, written by Peter Selinger 2001-2013
</metadata>
<g transform="translate(0.000000,140.000000) scale(0.100000,-0.100000)"
fill="#000000" stroke="none">
<path d="M73 1379 c-18 -11 -41 -35 -53 -53 -20 -33 -20 -47 -20 -626 0 -580
0 -593 21 -626 11 -18 35 -42 53 -53 33 -21 46 -21 626 -21 580 0 593 0 626
21 18 11 42 35 53 53 21 33 21 46 21 626 0 580 0 593 -21 626 -11 18 -35 42
-53 53 -33 21 -46 21 -627 21 -583 0 -595 -1 -626 -21z m737 -395 c71 -28 84
-65 88 -234 1 -80 5 -155 7 -167 12 -55 70 -70 104 -27 18 22 21 41 21 115 l0
88 63 19 62 20 3 -119 c3 -127 -7 -163 -57 -216 -82 -86 -227 -72 -297 28 -36
52 -43 94 -44 238 0 102 -3 128 -17 143 -23 26 -65 23 -94 -8 -23 -24 -24 -33
-27 -167 -2 -119 -5 -148 -23 -184 -56 -115 -200 -145 -295 -61 -62 54 -74 92
-74 223 0 128 -4 124 75 96 l50 -18 5 -90 c4 -71 9 -96 24 -112 24 -26 60 -27
86 -1 19 19 20 33 20 219 0 125 4 202 10 206 6 4 34 1 64 -6 47 -10 59 -9 107
9 66 26 87 26 139 6z m-455 -19 c31 -30 32 -62 3 -92 -44 -47 -128 -18 -128
44 0 65 79 95 125 48z m792 3 c48 -45 16 -118 -52 -118 -69 0 -98 68 -50 115
30 31 71 32 102 3z"/>
</g>
</svg>
